<svg width="64" height="64" viewBox="0 0 64 64" fill="none" xmlns="http://www.w3.org/2000/svg">
<rect width="64" height="64" rx="15" fill="white"/>
<path d="M41 21.5V20.1875C41 17.7508 40.0518 15.4139 38.364 13.691C36.6761 11.968 34.3869 11 32 11C29.6131 11 27.3239 11.968 25.636 13.691C23.9482 15.4139 23 17.7508 23 20.1875V21.5H14V47.75C14 49.1424 14.5418 50.4777 15.5063 51.4623C16.4708 52.4469 17.7789 53 19.1429 53H44.8571C46.2211 53 47.5292 52.4469 48.4937 51.4623C49.4582 50.4777 50 49.1424 50 47.75V21.5H41ZM32 13.625C33.705 13.625 35.3401 14.3164 36.5457 15.5471C37.7513 16.7778 38.4286 18.447 38.4286 20.1875V21.5H25.5714V20.1875C25.5714 18.447 26.2487 16.7778 27.4543 15.5471C28.6599 14.3164 30.295 13.625 32 13.625ZM32 31.9816C36.2789 27.4903 46.9786 35.3495 32 45.4531C17.0214 35.3469 27.7211 27.4903 32 31.9816Z" fill="#7A76E2"/>
</svg>
